<?xml version="1.0" encoding="UTF-8" standalone="no"?>
<!-- Created with Inkscape (http://www.inkscape.org/) -->
<svg
   xmlns:svg="http://www.w3.org/2000/svg"
   xmlns="http://www.w3.org/2000/svg"
   version="1.0"
   width="744.09448"
   height="311.811"
   id="svg1877">
  <defs
     id="defs1879" />
  <g
     transform="translate(-10.70683,185.5036)"
     id="layer1">
    <g
       transform="translate(17.71653,17.66892)"
       id="g3852">
      <path
         d="M 10.706829,16.810266 L 267.96878,16.810266 L 267.96878,-13.292954 L 10.706829,-13.292954 L 10.706829,16.810266 z "
         style="fill:#e43037;fill-rule:nonzero;stroke:none"
         id="path3646" />
      <path
         d="M 128.02304,-147.25378 C 128.02304,-147.25378 128.61856,-143.51395 128.61856,-141.75123 C 132.19164,-124.34436 136.95575,-97.498604 137.55126,-92.883373 L 118.49483,-92.883373 C 119.68585,-97.510511 124.44996,-124.35032 128.02304,-141.75123 C 128.02304,-143.51395 128.02304,-147.25378 128.02304,-147.25378 z M 143.5064,-183.90765 L 114.92174,-183.90765 L 80.977458,-33.367726 L 107.77558,-33.367726 C 107.77558,-33.367726 113.73071,-66.08525 114.92174,-70.259804 L 141.71986,-70.259804 C 142.31538,-66.08525 148.27052,-33.367726 148.27052,-33.367726 L 175.06863,-33.367726 L 143.5064,-183.90765"
         style="fill:black;fill-rule:nonzero;stroke:none"
         id="path3648" />
      <path
         d="M 242.9572,-90.40008 C 242.9572,-89.727147 242.9572,-85.671697 242.9572,-85.671697 C 242.9572,-85.671697 242.36169,-89.399616 242.36169,-91.168292 C 235.81104,-124.21335 223.90077,-183.90765 223.90077,-183.90765 L 189.95648,-183.90765 L 189.95648,-33.367726 L 213.77703,-33.367726 C 213.77703,-33.367726 213.77703,-95.229696 213.77703,-129.38241 C 213.77703,-130.04939 213.77703,-134.10484 213.77703,-134.10484 C 213.77703,-134.10484 214.37254,-130.37096 214.37254,-128.58442 C 220.92319,-94.669914 232.83347,-33.367726 232.83347,-33.367726 L 267.96878,-33.367726 L 267.96878,-183.90765 L 242.9572,-183.90765 C 242.9572,-183.90765 242.9572,-123.6893 242.9572,-90.40008"
         style="fill:black;fill-rule:nonzero;stroke:none"
         id="path3650" />
      <path
         d="M 10.706829,-183.90765 L 10.706829,-33.367726 L 71.449236,-33.367726 L 71.449236,-55.997247 L 36.909439,-55.997247 L 36.909439,-183.90765 L 10.706829,-183.90765"
         style="fill:black;fill-rule:nonzero;stroke:none"
         id="path3652" />
      <path
         d="M 303.69961,64.933735 L 303.69961,61.140313 L 287.02523,61.140313 L 287.02523,50.712867 L 306.08166,50.712867 L 306.08166,46.919445 L 282.85663,46.919445 L 282.85663,80.035967 L 306.67718,80.035967 L 306.67718,76.290183 L 287.02523,76.290183 L 287.02523,64.933735 L 303.69961,64.933735"
         style="fill:black;fill-rule:nonzero;stroke:none"
         id="path3654" />
      <path
         d="M 311.44129,57.942403 L 311.44129,80.035967 L 315.01437,80.035967 L 315.01437,67.422982 C 315.01437,65.779363 315.01437,64.088107 316.80092,62.450442 C 317.99194,61.277283 319.18297,60.759185 320.96951,60.759185 C 322.75605,60.759185 325.13811,61.694141 325.73362,63.808214 C 325.73362,64.558561 325.73362,65.213628 325.73362,67.470624 L 325.73362,80.035967 L 329.90222,80.035967 L 329.90222,66.857247 C 329.90222,64.981378 329.90222,63.623606 329.3067,62.307518 C 328.11567,58.645113 325.13811,57.239698 322.16054,57.239698 C 320.96951,57.239698 317.39643,57.567229 315.01437,61.181997 L 315.01437,57.942403 L 311.44129,57.942403"
         style="fill:black;fill-rule:nonzero;stroke:none"
         id="path3656" />
      <path
         d="M 339.43044,66.904884 C 340.02595,62.450442 342.408,60.104118 345.98109,60.104118 C 347.76763,60.104118 351.93623,61.086716 351.93623,66.904884 L 339.43044,66.904884 z M 352.53174,72.723057 C 351.93623,75.676805 349.55417,77.880205 346.5766,77.880205 C 341.21698,77.880205 339.43044,73.288792 339.43044,69.578744 L 356.10482,69.578744 C 356.10482,68.63783 356.10482,66.946574 355.50931,65.070705 C 354.31828,59.490741 350.14968,57.239698 345.98109,57.239698 C 341.21698,57.239698 335.26184,60.43165 335.26184,68.780753 C 335.26184,76.242545 339.43044,80.696987 345.98109,80.696987 C 353.72277,80.696987 355.50931,74.74185 356.10482,73.235196 L 352.53174,72.723057"
         style="fill:black;fill-rule:evenodd;stroke:none"
         id="path3658" />
      <path
         d="M 361.46445,57.942403 L 361.46445,80.035967 L 365.63304,80.035967 L 365.63304,69.810994 C 365.63304,67.798155 365.03753,65.874649 366.22856,64.23103 C 367.41958,62.450442 369.20613,61.59886 371.58818,61.59886 C 372.18369,61.59886 372.18369,61.652456 372.77921,61.694141 L 372.77921,57.662515 C 371.58818,57.710152 367.41958,57.79948 365.63304,61.979987 L 365.63304,57.942403 L 361.46445,57.942403"
         style="fill:black;fill-rule:nonzero;stroke:none"
         id="path3660" />
      <path
         d="M 386.47603,60.616262 C 387.66705,60.616262 393.62219,61.134359 393.62219,68.63783 C 393.62219,69.953917 393.62219,72.580134 391.83565,74.551283 C 390.64462,76.474795 388.85808,77.368061 386.47603,77.368061 C 384.68949,77.368061 382.90294,76.802326 381.1164,74.74185 C 379.92537,72.770695 379.92537,70.239764 379.92537,68.971319 C 379.92537,63.855856 382.30743,60.6639 386.47603,60.616262 z M 393.02668,57.942403 L 393.02668,60.902109 C 390.64462,57.894765 388.26257,57.239698 385.88051,57.239698 C 381.71191,57.239698 375.75678,60.193446 375.75678,69.108289 C 375.75678,76.802326 380.52089,80.696987 385.88051,80.696987 C 390.04911,80.696987 392.43117,77.927848 393.02668,76.802326 L 393.02668,79.3809 C 393.02668,83.043311 393.02668,84.680971 391.83565,86.139982 C 391.24014,86.890329 389.45359,87.730004 387.07154,87.730004 C 382.30743,87.730004 381.1164,85.062103 381.1164,82.525214 L 376.94781,82.525214 C 376.94781,83.841296 377.54332,86.890329 379.92537,88.903163 C 382.30743,90.21925 384.68949,90.779032 387.07154,90.779032 C 390.64462,90.779032 394.21771,89.564183 396.00424,86.515155 C 397.19527,84.162874 397.19527,81.399692 397.19527,78.821118 L 397.19527,57.942403 L 393.02668,57.942403"
         style="fill:black;fill-rule:evenodd;stroke:none"
         id="path3662" />
      <path
         d="M 406.72349,57.942403 L 403.15041,57.942403 L 403.15041,80.035967 L 406.72349,80.035967 L 406.72349,57.942403 z M 406.72349,46.919445 L 403.15041,46.919445 L 403.15041,51.242876 L 406.72349,51.242876 L 406.72349,46.919445 z "
         style="fill:black;fill-rule:evenodd;stroke:none"
         id="path3664" />
      <path
         d="M 413.27415,57.942403 L 413.27415,61.181997 L 424.58891,61.181997 L 412.08312,76.94525 L 412.08312,80.035967 L 429.35302,80.035967 L 429.35302,76.94525 L 416.25172,76.94525 L 429.35302,60.943793 L 429.35302,57.942403 L 413.27415,57.942403"
         style="fill:black;fill-rule:nonzero;stroke:none"
         id="path3666" />
      <path
         d="M 438.28573,57.942403 L 434.71264,57.942403 L 434.71264,80.035967 L 438.28573,80.035967 L 438.28573,57.942403 z M 438.28573,46.919445 L 434.71264,46.919445 L 434.71264,51.242876 L 438.28573,51.242876 L 438.28573,46.919445 z "
         style="fill:black;fill-rule:evenodd;stroke:none"
         id="path3668" />
      <path
         d="M 444.8364,57.942403 L 444.8364,80.035967 L 448.40944,80.035967 L 448.40944,67.422982 C 448.40944,65.779363 448.40944,64.088107 450.19598,62.450442 C 451.38702,61.277283 453.17356,60.759185 454.36461,60.759185 C 456.74665,60.759185 458.53319,61.694141 459.12869,63.808214 C 459.72423,64.558561 459.72423,65.213628 459.72423,67.470624 L 459.72423,80.035967 L 463.29732,80.035967 L 463.29732,66.857247 C 463.29732,64.981378 463.29732,63.623606 462.70177,62.307518 C 461.51077,58.645113 458.53319,57.239698 455.5556,57.239698 C 454.36461,57.239698 450.79152,57.567229 448.40944,61.181997 L 448.40944,57.942403 L 444.8364,57.942403"
         style="fill:black;fill-rule:nonzero;stroke:none"
         id="path3670" />
      <path
         d="M 479.37619,60.616262 C 481.16273,60.616262 486.52236,61.134359 486.52236,68.63783 C 486.52236,69.953917 486.52236,72.580134 485.33132,74.551283 C 484.14027,76.474795 481.75823,77.368061 479.97169,77.368061 C 478.18515,77.368061 475.80311,76.802326 474.01657,74.74185 C 472.82552,72.770695 472.82552,70.239764 472.82552,68.971319 C 472.82552,63.855856 475.20756,60.6639 479.37619,60.616262 z M 486.52236,57.942403 L 486.52236,60.902109 C 484.14027,57.894765 481.16273,57.239698 479.37619,57.239698 C 474.61206,57.239698 468.65694,60.193446 468.65694,69.108289 C 468.65694,76.802326 474.01657,80.696987 479.37619,80.696987 C 483.54477,80.696987 485.33132,77.927848 486.52236,76.802326 L 486.52236,79.3809 C 486.52236,83.043311 486.52236,84.680971 484.73582,86.139982 C 484.14027,86.890329 482.94928,87.730004 480.56719,87.730004 C 475.80311,87.730004 474.01657,85.062103 474.01657,82.525214 L 469.84794,82.525214 C 469.84794,83.841296 470.44348,86.890329 473.42102,88.903163 C 475.20756,90.21925 477.58965,90.779032 479.97169,90.779032 C 483.54477,90.779032 487.11786,89.564183 488.9044,86.515155 C 490.09544,84.162874 490.09544,81.399692 490.09544,78.821118 L 490.09544,57.942403 L 486.52236,57.942403"
         style="fill:black;fill-rule:evenodd;stroke:none"
         id="path3672" />
      <path
         d="M 417.44274,-183.90765 L 417.44274,16.810266 L 497.83711,16.810266 L 497.83711,-13.364415 L 451.98252,-13.364415 L 451.98252,-70.86127 L 495.45507,-70.86127 L 495.45507,-101.03596 L 451.98252,-101.03596 L 451.98252,-153.73297 L 497.83711,-153.73297 L 497.83711,-183.90765 L 417.44274,-183.90765"
         style="fill:black;fill-rule:nonzero;stroke:none"
         id="path3674" />
      <path
         d="M 515.70253,-136.47498 C 515.70253,-109.49225 529.99486,-93.294277 548.45578,-74.934586 C 575.8494,-47.725563 575.8494,-43.271116 575.8494,-28.478554 C 575.8494,-13.269135 570.48978,-10.154599 562.15261,-10.154599 C 559.17503,-10.154599 550.24232,-10.154599 550.24232,-27.15056 L 550.24232,-46.772738 L 515.70253,-46.772738 L 515.70253,-19.932931 C 515.70253,4.4414482 532.3769,18.418154 560.96157,18.418154 C 593.11932,18.418154 608.60265,1.5829812 608.60265,-33.034236 C 608.60265,-57.551539 603.24303,-67.490665 576.4449,-95.575092 C 552.62436,-120.43184 550.24232,-127.75666 550.24232,-139.67884 C 550.24232,-154.05455 555.00645,-156.93683 562.74811,-156.93683 C 568.10774,-156.93683 573.46736,-155.3349 573.46736,-143.42463 L 573.46736,-124.3265 L 606.22061,-124.3265 L 606.22061,-146.36646 C 606.22061,-159.47968 603.83857,-167.93002 597.2879,-173.76605 C 588.95069,-181.35885 577.04045,-185.50363 563.34361,-185.50363 C 531.7814,-185.50363 515.70253,-169.4724 515.70253,-136.47498"
         style="fill:black;fill-rule:nonzero;stroke:none"
         id="path3676" />
      <path
         d="M 626.46807,-136.47498 C 626.46807,-109.49225 640.76041,-93.294277 659.22132,-74.934586 C 686.61495,-47.725563 686.61495,-43.271116 686.61495,-28.478554 C 686.61495,-13.269135 681.25537,-10.154599 672.91816,-10.154599 C 669.94057,-10.154599 661.00786,-10.154599 661.00786,-27.15056 L 661.00786,-46.772738 L 626.46807,-46.772738 L 626.46807,-19.932931 C 626.46807,4.4414482 643.14245,18.418154 671.72711,18.418154 C 703.88487,18.418154 719.36825,1.5829812 719.36825,-33.034236 C 719.36825,-57.551539 714.60412,-67.490665 687.21049,-95.575092 C 663.38995,-120.43184 661.00786,-127.75666 661.00786,-139.67884 C 661.00786,-154.05455 665.77199,-156.93683 673.51366,-156.93683 C 678.87328,-156.93683 684.23291,-155.3349 684.23291,-143.42463 L 684.23291,-124.3265 L 716.98616,-124.3265 L 716.98616,-146.36646 C 716.98616,-159.47968 714.60412,-167.93002 708.05345,-173.76605 C 700.31178,-181.35885 687.80599,-185.50363 674.1092,-185.50363 C 642.54695,-185.50363 626.46807,-169.4724 626.46807,-136.47498"
         style="fill:black;fill-rule:nonzero;stroke:none"
         id="path3678" />
      <path
         d="M 402.5549,-183.90765 L 367.41958,-183.90765 L 343.00352,-124.92201 L 317.99194,-183.90765 L 282.85663,-183.90765 L 325.13811,-83.545717 L 282.85663,16.810266 L 317.99194,16.810266 L 343.00352,-42.175372 L 367.41958,16.810266 L 402.5549,16.810266 L 360.27342,-83.545717 L 402.5549,-183.90765"
         style="fill:black;fill-rule:nonzero;stroke:none"
         id="path3680" />
      <path
         d="M 547.26473,80.035967 L 551.43336,80.035967 L 551.43336,69.298851 C 551.43336,67.655232 551.43336,66.488026 551.43336,65.261266 C 552.02886,61.837064 555.00645,60.526935 557.38849,60.526935 C 558.57953,60.526935 560.36607,61.039074 560.96157,62.396846 C 562.15261,63.760576 562.15261,65.445879 562.15261,68.363895 L 562.15261,80.035967 L 565.72565,80.035967 L 565.72565,67.184778 C 565.72565,64.981378 565.72565,63.522367 565.13015,62.116957 C 564.53465,59.961195 562.74811,57.239698 557.98398,57.239698 C 555.60194,57.239698 553.8154,57.662515 551.43336,60.151761 L 551.43336,46.871802 L 547.26473,46.871802 L 547.26473,80.035967"
         style="fill:black;fill-rule:nonzero;stroke:none"
         id="path3682" />
      <path
         d="M 575.2539,66.904884 C 575.8494,62.450442 578.23144,60.104118 581.80453,60.104118 C 583.59107,60.104118 587.7597,61.086716 587.7597,66.904884 L 575.2539,66.904884 z M 588.3552,72.723057 C 587.7597,75.676805 585.97316,77.880205 582.40007,77.880205 C 577.04045,77.880205 575.2539,73.288792 575.2539,69.578744 L 591.92828,69.578744 C 591.92828,68.63783 591.92828,66.946574 591.92828,65.070705 C 590.14174,59.490741 585.97316,57.239698 581.80453,57.239698 C 577.04045,57.239698 571.08528,60.43165 571.08528,68.780753 C 571.08528,76.242545 575.2539,80.696987 581.80453,80.696987 C 589.54624,80.696987 591.33278,74.74185 591.92828,73.235196 L 588.3552,72.723057"
         style="fill:black;fill-rule:evenodd;stroke:none"
         id="path3684" />
      <path
         d="M 597.2879,57.942403 L 597.2879,80.035967 L 600.86099,80.035967 L 600.86099,66.904884 C 600.86099,64.933735 600.86099,63.712933 602.64753,62.396846 C 603.83857,61.36661 605.02957,60.759185 606.81611,60.759185 C 608.00716,60.759185 609.1982,61.557171 609.7937,62.259881 C 610.98474,63.385402 610.98474,64.933735 610.98474,65.779363 L 610.98474,79.994278 L 614.55782,79.994278 L 614.55782,67.607594 C 614.55782,64.933735 614.55782,63.897541 615.74882,62.635054 C 616.93986,61.509533 618.13091,60.759185 619.91745,60.759185 C 620.51295,60.759185 622.89499,60.991436 624.08603,63.522367 C 624.08603,64.278673 624.08603,65.029016 624.08603,67.041854 L 624.08603,79.994278 L 627.65912,79.994278 L 627.65912,66.154537 C 627.65912,63.951137 627.65912,62.450442 627.06357,61.086716 C 625.87257,58.925001 623.49053,57.239698 621.10845,57.239698 C 617.53536,57.239698 615.74882,59.401414 613.36678,61.318967 C 612.77128,59.586021 610.98474,57.239698 607.41166,57.239698 C 606.22061,57.239698 603.83857,57.751842 600.86099,60.902109 L 600.86099,57.942403 L 597.2879,57.942403"
         style="fill:black;fill-rule:evenodd;stroke:none"
         id="path3686" />
      <path
         d="M 637.78282,57.942403 L 634.20974,57.942403 L 634.20974,80.035967 L 637.78282,80.035967 L 637.78282,57.942403 z M 637.78282,46.919445 L 634.20974,46.919445 L 634.20974,51.242876 L 637.78282,51.242876 L 637.78282,46.919445 z "
         style="fill:black;fill-rule:evenodd;stroke:none"
         id="path3688" />
      <path
         d="M 653.8617,70.704265 C 656.83928,71.222362 658.62582,71.686863 658.62582,74.223752 C 658.62582,76.61176 656.83928,77.880205 653.2662,77.880205 C 652.07515,77.880205 650.28861,77.743235 649.09762,76.61176 C 647.31108,75.158708 647.31108,73.288792 647.31108,72.300241 L 643.14245,72.955308 C 643.73799,76.659403 645.52453,78.445945 646.71553,78.958083 C 648.50207,80.226528 650.88416,80.744625 653.2662,80.744625 C 659.22132,80.744625 662.79441,77.368061 662.79441,73.753293 C 662.79441,69.108289 658.03033,67.982768 655.05274,67.375344 L 653.2662,66.857247 C 650.28861,66.154537 647.90657,65.499475 647.90657,63.385402 C 647.90657,61.884707 649.09762,60.151761 652.07515,60.151761 C 653.2662,60.151761 655.05274,60.336369 656.24378,61.467844 C 658.03033,62.587412 658.03033,63.66529 658.03033,65.029016 L 662.19891,64.510923 C 661.60341,59.306128 656.83928,57.287341 652.6707,57.287341 C 647.31108,57.287341 644.33349,59.818272 644.33349,63.855856 C 644.33349,68.453222 648.50207,69.43582 652.07515,70.281449 L 653.8617,70.704265"
         style="fill:black;fill-rule:nonzero;stroke:none"
         id="path3690" />
      <path
         d="M 672.91816,50.957029 L 669.34508,50.957029 L 669.34508,57.942403 L 665.77199,57.942403 L 665.77199,61.039074 L 669.34508,61.039074 L 669.34508,75.390958 C 669.34508,78.303021 669.34508,80.417094 673.51366,80.417094 C 674.7047,80.417094 676.49124,80.137201 677.08674,80.035967 L 677.08674,76.94525 C 676.49124,77.1775 675.3002,77.457388 674.7047,77.457388 C 672.91816,77.457388 672.91816,76.331872 672.91816,73.705655 L 672.91816,61.039074 L 677.08674,61.039074 L 677.08674,57.942403 L 672.91816,57.942403 L 672.91816,50.957029"
         style="fill:black;fill-rule:nonzero;stroke:none"
         id="path3692" />
      <path
         d="M 682.44637,57.942403 L 682.44637,80.035967 L 686.01945,80.035967 L 686.01945,69.810994 C 686.01945,67.798155 686.01945,65.874649 687.21049,64.23103 C 687.80599,62.450442 689.59253,61.59886 691.97457,61.59886 C 692.57012,61.59886 693.16562,61.652456 693.76111,61.694141 L 693.76111,57.662515 C 691.97457,57.710152 688.40149,57.79948 686.01945,61.979987 L 686.01945,57.942403 L 682.44637,57.942403"
         style="fill:black;fill-rule:nonzero;stroke:none"
         id="path3694" />
      <path
         d="M 710.43554,57.942403 L 704.48037,75.486239 L 699.12074,57.942403 L 694.95216,57.942403 L 702.69382,80.184844 L 701.50283,82.852745 C 700.90728,85.901778 700.31178,87.497753 697.3342,87.497753 C 696.1432,87.497753 695.54766,87.265503 694.95216,87.12258 L 694.95216,90.451501 C 695.54766,90.689705 696.7387,90.969598 698.52524,90.969598 C 702.69382,90.969598 703.28937,88.527994 705.07591,84.073547 L 714.60412,57.942403 L 710.43554,57.942403"
         style="fill:black;fill-rule:nonzero;stroke:none"
         id="path3696" />
      <path
         d="M 538.92757,67.494443 C 537.73653,74.575102 532.3769,77.499077 527.61277,77.499077 C 519.87111,77.499077 515.70253,71.615401 515.70253,63.242479 C 515.70253,59.794453 516.29802,56.251147 518.08457,53.571334 C 520.46661,50.748598 524.03969,49.313411 527.61277,49.313411 C 531.7814,49.313411 534.75894,51.230964 536.54548,53.237844 C 537.73653,54.643259 537.73653,55.870014 538.33202,57.090821 L 542.50065,56.209457 C 541.90511,54.006057 538.92757,46.073816 527.61277,46.073816 C 516.29802,46.073816 510.9384,54.095384 510.9384,63.474729 C 510.9384,72.675415 516.29802,80.881595 527.01728,80.881595 C 536.54548,80.881595 541.90511,74.31308 543.09615,68.030406 L 538.92757,67.494443"
         style="fill:black;fill-rule:nonzero;stroke:none"
         id="path3698" />
    </g>
  </g>
</svg>
