<?xml version="1.0" standalone="no"?>
<!DOCTYPE svg PUBLIC "-//W3C//DTD SVG 20010904//EN" "http://www.w3.org/TR/2001/REC-SVG-20010904/DTD/svg10.dtd">
<svg version="1.0" xmlns="http://www.w3.org/2000/svg" width="1280" height="720"
  viewBox="0 0 1280 720" preserveAspectRatio="xMidYMid meet">

  <g transform="translate(0.000000, 780.000000) scale(0.100000,-0.100000)" fill="#00887d" stroke="none">
    <path d="M949 5173 c-22 -25 -24 -203 -4 -309 33 -181 113 -398 208 -565 65
-115 127 -180 127 -134 0 8 -29 70 -64 137 -78 148 -135 290 -176 435 -63 223
-42 340 37 206 33 -58 172 -402 212 -528 16 -49 41 -136 56 -193 l27 -103 -66
-69 c-138 -143 -160 -252 -111 -551 25 -148 37 -340 23 -354 -3 -3 -74 -1
-159 3 -85 5 -160 7 -166 5 -15 -6 -17 -29 -4 -37 5 -3 110 -11 233 -17 l223
-12 53 49 c29 28 52 58 52 69 0 11 -30 56 -66 99 -84 101 -108 140 -135 218
-38 113 -11 285 50 318 11 5 36 10 56 10 115 0 258 -276 272 -525 l5 -100 -36
-68 c-48 -90 -47 -111 10 -164 42 -38 46 -45 40 -75 -13 -65 -80 -105 -163
-95 -52 6 -89 30 -118 76 l-20 31 -140 -6 c-185 -9 -230 -15 -230 -34 0 -13
25 -15 157 -15 l158 0 27 -39 c64 -90 265 -214 360 -223 93 -9 262 83 372 203
l59 65 151 -7 c148 -7 151 -7 151 14 0 22 -20 25 -251 38 l-116 6 -21 -36
c-51 -86 -180 -100 -254 -28 -43 40 -38 78 17 131 25 24 45 52 45 63 0 11 -16
48 -35 82 -33 60 -35 68 -35 157 0 118 27 233 80 347 45 95 97 165 140 187
102 53 173 -28 173 -195 -1 -127 -36 -202 -165 -351 -65 -75 -65 -100 3 -158
l51 -44 146 7 c81 3 184 9 230 13 77 5 83 7 80 27 -3 20 -7 21 -118 17 -63 -3
-137 -5 -165 -5 l-50 -1 1 110 c0 70 11 170 28 275 36 214 33 279 -17 385 -26
53 -55 95 -98 137 -58 58 -61 64 -55 99 27 171 239 740 304 819 37 44 52 33
52 -38 0 -127 -76 -357 -197 -600 -47 -95 -83 -176 -79 -179 36 -36 186 219
266 452 55 159 79 268 86 395 8 135 -6 184 -52 188 -69 7 -206 -191 -405 -583
-58 -115 -126 -261 -149 -322 l-44 -113 -113 0 -114 0 -13 33 c-7 17 -26 66
-42 107 -72 185 -273 566 -386 732 -92 134 -152 176 -189 131z m826 -2421 l39
-20 -34 -21 c-47 -28 -123 -28 -170 0 l-34 21 29 16 c17 8 43 25 60 38 29 23
30 23 50 5 11 -10 38 -28 60 -39z" />
    <path d="M1515 4971 c-39 -9 -101 -31 -137 -48 l-67 -32 46 -83 45 -84 48 23
c147 70 320 71 478 3 29 -12 55 -21 57 -18 9 8 85 151 85 158 0 12 -140 68
-212 85 -85 20 -254 18 -343 -4z" />
    <path d="M3110 4585 c-7 -9 -10 -27 -7 -44 4 -17 140 -470 302 -1008 219 -723
302 -983 317 -995 18 -16 44 -18 218 -18 174 0 200 2 220 18 31 25 635 2015
620 2043 -10 18 -24 19 -183 19 -123 0 -178 -4 -190 -12 -11 -9 -84 -271 -232
-833 -118 -451 -218 -828 -222 -838 -6 -12 -80 253 -227 815 -120 458 -225
841 -234 851 -13 15 -36 17 -192 17 -146 0 -180 -3 -190 -15z" />
    <path d="M6262 4588 c-8 -8 -12 -58 -12 -159 0 -121 3 -150 16 -163 13 -13 43
-16 170 -16 88 0 164 4 175 10 17 10 19 23 19 163 0 106 -4 157 -12 165 -17
17 -339 17 -356 0z" />
    <path d="M6972 4588 c-9 -9 -12 -250 -12 -1024 0 -907 2 -1014 16 -1028 13
-13 42 -16 165 -16 136 0 151 2 169 20 20 20 20 33 20 1018 0 887 -2 1000 -16
1020 -15 21 -21 22 -173 22 -109 0 -161 -4 -169 -12z" />
    <path d="M7679 4583 c-12 -13 -14 -185 -14 -1025 0 -988 0 -1010 19 -1024 24
-17 296 -20 327 -4 19 10 19 32 19 1028 0 779 -3 1021 -12 1030 -8 8 -60 12
-169 12 -133 0 -159 -2 -170 -17z" />
    <path d="M899 4483 c-112 -171 -222 -439 -267 -653 -49 -228 -54 -495 -12
-691 110 -523 448 -899 890 -991 121 -26 304 -20 425 12 348 92 649 398 780
793 125 376 105 772 -59 1197 -56 144 -203 410 -227 410 -4 0 -10 -12 -14 -27
-3 -15 -22 -60 -40 -100 l-33 -72 63 -123 c151 -293 223 -626 195 -909 -54
-562 -415 -982 -865 -1006 -544 -30 -979 513 -952 1187 11 251 67 462 188 708
l71 143 -36 83 c-20 46 -36 88 -36 94 0 34 -26 14 -71 -55z" />
    <path d="M11484 4356 c-19 -14 -19 -33 -19 -753 0 -663 2 -745 18 -806 44
-176 136 -267 306 -303 80 -17 330 -19 435 -3 103 15 110 25 114 148 2 53 -1
109 -7 124 l-11 28 -158 -7 c-174 -8 -210 -2 -264 44 -57 48 -58 55 -58 482
l0 390 216 0 c129 0 223 4 235 10 17 10 19 22 19 138 0 86 -4 132 -12 140 -9
9 -75 12 -234 12 l-222 0 -4 171 c-3 155 -5 172 -22 185 -28 20 -304 20 -332
0z" />
    <path d="M5172 4040 c-151 -13 -293 -41 -314 -62 -15 -15 -18 -35 -18 -127 0
-60 3 -116 6 -125 8 -20 37 -20 143 1 60 12 139 17 261 17 169 1 177 0 219
-24 65 -37 85 -82 89 -202 l4 -98 -144 0 c-322 0 -499 -46 -612 -156 -85 -84
-116 -172 -116 -329 0 -204 69 -339 210 -410 61 -31 132 -45 235 -45 160 0
266 36 387 130 35 27 66 50 71 50 4 0 7 -24 7 -54 0 -83 6 -86 164 -86 116 0
135 2 149 18 15 17 17 70 17 558 0 323 -4 565 -11 604 -28 176 -127 283 -301
325 -76 19 -317 27 -446 15z m388 -1014 l0 -154 -49 -36 c-27 -20 -75 -48
-107 -64 -51 -23 -72 -27 -151 -27 -99 0 -123 10 -167 69 -23 30 -34 145 -22
212 10 50 67 110 124 128 64 20 86 23 240 25 l132 1 0 -154z" />
    <path d="M8747 4039 c-60 -5 -154 -18 -210 -29 -135 -26 -137 -29 -137 -170 0
-125 10 -147 64 -135 189 39 462 58 542 36 107 -29 146 -87 152 -227 l4 -91
-208 -6 c-215 -6 -292 -17 -396 -57 -166 -62 -257 -187 -274 -375 -19 -206 71
-393 221 -464 66 -31 119 -40 230 -41 158 0 272 40 389 135 31 25 58 45 61 45
3 0 5 -22 5 -50 0 -83 14 -90 169 -90 108 0 132 3 150 18 l22 17 -4 570 c-4
609 -4 611 -56 712 -73 144 -201 200 -471 208 -80 2 -194 -1 -253 -6z m413
-1013 l0 -155 -75 -50 c-88 -58 -154 -81 -239 -81 -132 0 -190 63 -190 205 -1
67 3 87 24 125 47 83 122 107 348 109 l132 1 0 -154z" />
    <path d="M10555 4035 c-117 -22 -197 -57 -302 -132 l-63 -44 0 55 c0 83 -6 86
-170 86 -132 0 -140 -1 -154 -22 -14 -20 -16 -105 -16 -720 0 -685 0 -698 20
-718 18 -18 33 -20 168 -20 131 0 151 2 165 18 15 17 17 72 19 543 l3 524 63
41 c89 59 158 79 267 79 100 -1 140 -15 173 -62 39 -56 42 -91 42 -605 0 -485
1 -499 20 -518 18 -18 33 -20 168 -20 112 0 153 3 168 14 18 14 19 30 16 583
-4 616 -6 648 -59 746 -82 149 -290 217 -528 172z" />
    <path d="M6272 3988 c-9 -9 -12 -184 -12 -724 0 -634 2 -714 16 -728 22 -22
300 -23 330 -2 18 14 19 35 22 717 2 619 1 705 -13 725 -15 24 -19 24 -173 24
-110 0 -162 -4 -170 -12z" />
    <path d="M1329 3653 c-8 -9 -14 -39 -14 -72 1 -95 60 -175 141 -188 42 -7 64
10 64 48 0 52 -17 79 -49 79 -35 0 -48 25 -26 50 22 24 19 43 -13 73 -32 31
-82 36 -103 10z" />
    <path d="M1969 3660 c-9 -5 -24 -21 -33 -36 -16 -24 -16 -27 -1 -44 25 -27 15
-54 -20 -58 -38 -5 -45 -16 -45 -74 0 -42 3 -48 25 -54 55 -14 124 30 156 101
23 50 25 138 3 159 -17 18 -60 21 -85 6z" />
    <path d="M923 3014 c-3 -9 0 -20 8 -25 16 -10 174 -12 312 -2 85 5 97 8 97 25
0 17 -12 18 -205 18 -179 0 -206 -2 -212 -16z" />
    <path d="M2040 3012 c0 -17 12 -20 98 -25 175 -12 308 -9 322 8 26 31 0 35
-211 35 -197 0 -209 -1 -209 -18z" />
  </g>
</svg>
